M48
INCH,TZ
T1C0.0157
T2C0.0200
T3C0.0276
T4C0.0300
T5C0.0315
T6C0.0394
T7C0.0472
%
G90
G05
T1
X36200Y-50150
X36200Y-51600
X36250Y-47150
X37000Y-47750
X37100Y-34900
X37600Y-30000
X37600Y-31050
X37850Y-36750
X38102Y-37083
X38950Y-32900
X38954Y-37083
X39450Y-36400
X40200Y-34600
X43020Y-37610
X43390Y-37370
X45138Y-40773
X45270Y-41210
X45500Y-51000
X46070Y-45550
X46110Y-33710
X46250Y-40250
X46250Y-41500
X46450Y-34020
X46500Y-45540
X46550Y-36410
X46750Y-40250
X46750Y-41500
X46900Y-47700
X47050Y-33250
X47250Y-40250
X47250Y-41500
X47400Y-32080
X47507Y-33808
X47520Y-45550
X47580Y-35320
X47580Y-36330
X47750Y-40250
X47750Y-41500
X47848Y-30753
X47984Y-32661
X48000Y-54200
X48150Y-35350
X48500Y-51000
X48510Y-47000
X48520Y-45090
X48621Y-33621
X48720Y-44190
X49010Y-33080
X49010Y-33740
X49010Y-43840
X49041Y-35331
X49200Y-54200
X49500Y-51000
X49700Y-35350
X49920Y-30960
X50346Y-32186
X50357Y-33852
X50500Y-51000
X50520Y-35320
X50610Y-36740
X50827Y-32665
X50850Y-54200
X50860Y-42570
X51140Y-42270
X51174Y-32296
X51212Y-34069
X51450Y-36577
X51460Y-35380
X51470Y-30910
X51530Y-51000
X51669Y-32180
X51800Y-54200
X52070Y-35370
X52200Y-40300
X52315Y-31845
X52350Y-51700
X52600Y-35370
X52600Y-40300
X52650Y-45360
X52905Y-33594
X52950Y-54200
X53000Y-40300
X53000Y-51000
X53030Y-37100
X53510Y-35330
X53660Y-42000
X54119Y-41047
X54120Y-40308
X54250Y-36750
X54400Y-43370
X54500Y-45340
X54620Y-36330
X54655Y-40384
X54740Y-51000
X54850Y-54200
X54860Y-36660
X54910Y-43930
X55020Y-37810
X55020Y-38310
X55051Y-40263
X56000Y-52100
X56000Y-54200
X56617Y-41297
X56989Y-41340
X57160Y-44190
X58350Y-54250
X58450Y-53700
X59324Y-50226
X60250Y-53250
X60450Y-50200
X60450Y-50800
X60450Y-51400
X60800Y-51800
X61750Y-54000
X63650Y-51950
X64050Y-51500
X64390Y-43640
X65250Y-53250
T2
X30900Y-33500
X30900Y-34000
X32350Y-27550
X32800Y-29700
X33300Y-29700
X33500Y-25190
X33500Y-25970
X33800Y-29700
X34100Y-25200
X34250Y-57670
X34300Y-29700
X34700Y-25200
X34710Y-52750
X34720Y-48250
X34720Y-51240
X34720Y-54250
X34730Y-43760
X34730Y-45250
X34730Y-46750
X34730Y-49750
X35550Y-28750
X35550Y-29400
X35900Y-33300
X35900Y-33700
X35900Y-34100
X35900Y-34500
X35910Y-57670
X36350Y-29850
X36950Y-35530
X37000Y-44500
X37000Y-45250
X37250Y-55500
X37340Y-42920
X37350Y-35530
X38050Y-26750
X38120Y-38220
X38200Y-30050
X38230Y-34030
X38250Y-55500
X38750Y-30100
X38900Y-26250
X38900Y-40000
X39200Y-29600
X39250Y-55500
X39490Y-42900
X39600Y-40000
X40000Y-37900
X40200Y-40000
X40400Y-42950
X40400Y-43650
X40500Y-37900
X40500Y-46100
X41000Y-37900
X41100Y-36000
X41300Y-46100
X41500Y-36000
X41500Y-37900
X41600Y-35100
X41900Y-36000
X42000Y-35100
X42000Y-46100
X42400Y-35100
X42600Y-46100
X42786Y-40424
X42991Y-44650
X43000Y-45250
X43050Y-35470
X43460Y-35480
X43500Y-45750
X44450Y-26450
X44500Y-28000
X44700Y-47700
X44750Y-55000
X44791Y-35530
X44840Y-44650
X44850Y-26450
X44900Y-28000
X45035Y-34010
X45161Y-35530
X45250Y-26450
X45300Y-28000
X45400Y-33670
X45400Y-47700
X45500Y-37500
X45500Y-38250
X45580Y-43750
X45650Y-26450
X45700Y-28000
X46000Y-47700
X46050Y-26450
X46100Y-28000
X46213Y-35467
X46250Y-43750
X46250Y-55000
X46930Y-44660
X47000Y-43750
X47750Y-43750
X47750Y-55000
X48000Y-37500
X48000Y-38250
X48150Y-26400
X48150Y-28050
X48550Y-26400
X48550Y-28050
X48950Y-26400
X48950Y-28050
X49250Y-37500
X49250Y-38250
X49250Y-55000
X49300Y-21000
X49350Y-26400
X49350Y-28050
X49520Y-35950
X49750Y-26400
X49750Y-28050
X49910Y-35950
X50071Y-44660
X50310Y-35950
X50441Y-44660
X50500Y-37500
X50500Y-38250
X50750Y-55000
X50800Y-21000
X50811Y-44660
X51750Y-37500
X51750Y-42000
X51800Y-43000
X52250Y-42000
X52250Y-55000
X52300Y-21000
X52300Y-43000
X52700Y-47700
X52750Y-42000
X52800Y-43000
X53060Y-44660
X53150Y-48150
X53750Y-55000
X53800Y-21000
X53840Y-33936
X53850Y-28560
X54120Y-33630
X54350Y-29260
X54430Y-35480
X54801Y-35480
X54850Y-24000
X54900Y-24950
X54900Y-25650
X54900Y-26100
X55061Y-44650
X55150Y-48100
X55250Y-55000
X55400Y-22500
X55400Y-23050
X55630Y-47680
X56331Y-35480
X56500Y-45830
X56511Y-37030
X56740Y-35480
X56750Y-55000
X56920Y-45390
X56981Y-44660
X57200Y-35000
X57200Y-36100
X57350Y-21950
X57350Y-22500
X57350Y-23050
X57500Y-40150
X57500Y-54000
X57650Y-35000
X57650Y-36100
X57700Y-45750
X57700Y-46500
X57700Y-47250
X57700Y-48000
X57700Y-48750
X57700Y-49500
X57700Y-50250
X57740Y-38030
X58000Y-40150
X58100Y-36100
X58150Y-24900
X58150Y-25400
X58150Y-25900
X58150Y-35000
X58250Y-55000
X58250Y-55500
X58280Y-38030
X58500Y-21000
X58500Y-40150
X58780Y-38030
X59000Y-40150
X59200Y-31600
X59500Y-40150
X59700Y-31600
X59910Y-38320
X60000Y-21000
X60020Y-37650
X60200Y-31600
X60310Y-38920
X60310Y-39500
X60490Y-37650
X60500Y-33800
X60500Y-34300
X60500Y-34800
X60500Y-35300
X60500Y-49050
X60600Y-45400
X60600Y-45900
X60600Y-46400
X60600Y-46900
X60690Y-39890
X60700Y-31600
X61000Y-36300
X61050Y-48250
X61200Y-31600
X61350Y-40100
X61500Y-21000
X61500Y-36300
X61500Y-37200
X61700Y-31600
X61900Y-40100
X62100Y-37200
X62150Y-44100
X62150Y-48700
X62200Y-31600
X62450Y-40100
X62600Y-37200
X62700Y-44100
X62750Y-28460
X62750Y-32950
X62800Y-44950
X63000Y-21000
X63000Y-30450
X63000Y-31250
X63000Y-40100
X63000Y-41400
X63000Y-41900
X63250Y-44100
X63350Y-29300
X63350Y-32950
X63400Y-30450
X63400Y-31250
X63400Y-45500
X63450Y-33600
X63500Y-41400
X63500Y-41900
X63530Y-40100
X63800Y-30450
X63800Y-31250
X63800Y-44100
X63930Y-39670
X63992Y-41400
X64000Y-41900
X64200Y-30450
X64200Y-31250
X64350Y-34650
X64450Y-49450
X64500Y-41390
X64500Y-45550
X64500Y-46000
X64500Y-46450
X64950Y-49450
X65450Y-49450
T3
X33078Y-36785
X33078Y-37415
X33550Y-36470
X33550Y-37100
X33550Y-37730
X47500Y-49500
X47500Y-52500
X48500Y-49500
X48500Y-52500
X49500Y-49500
X49500Y-52500
X50500Y-49500
X50500Y-52500
X51500Y-49500
X51500Y-52500
X52500Y-49500
X52500Y-52500
X53500Y-49500
X53500Y-52500
X54500Y-49500
X54500Y-52500
X55500Y-49500
X55500Y-52500
X56500Y-49500
X56500Y-52500
T4
X58681Y-35520
X58681Y-36520
X58691Y-36020
X58691Y-37010
T5
X38500Y-49500
X38500Y-52500
X39500Y-49500
X39500Y-52500
X40500Y-49500
X40500Y-52500
X41500Y-49500
X41500Y-52500
X42500Y-49500
X42500Y-52500
X43500Y-49500
X43500Y-52500
X44500Y-49500
X44500Y-52500
X45500Y-49500
X45500Y-52500
T6
X35000Y-21977
X35000Y-22977
X35000Y-23977
X32000Y-46000
X33000Y-46000
X34000Y-46000
X41000Y-21977
X41000Y-22977
X41000Y-23977
X33500Y-21977
X33500Y-22977
X33500Y-23977
X49301Y-21971
X49301Y-22971
X49301Y-23971
X45500Y-21977
X45500Y-22977
X45500Y-23977
X32000Y-52000
X33000Y-52000
X34000Y-52000
X32000Y-42500
X33000Y-42500
X34000Y-42500
X44000Y-55500
X44000Y-56500
X44000Y-57500
X32010Y-40660
X33010Y-40660
X34010Y-40660
X35010Y-40660
X47000Y-55500
X47000Y-56500
X47000Y-57500
X53000Y-55500
X53000Y-56500
X53000Y-57500
X50000Y-55500
X50000Y-56500
X50000Y-57500
X47000Y-21977
X47000Y-22977
X47000Y-23977
X67000Y-32169
X67000Y-33169
X67000Y-34169
X67000Y-35169
X67000Y-36169
X67000Y-37169
X67000Y-38169
X67000Y-39169
X67000Y-40169
X67000Y-41169
X67000Y-42169
X67000Y-43169
X67000Y-44169
X67000Y-45169
X67000Y-46169
X67000Y-47169
X67000Y-48169
X67000Y-49169
X67000Y-50169
X67000Y-51169
X68000Y-32169
X68000Y-33169
X68000Y-34169
X68000Y-35169
X68000Y-36169
X68000Y-37169
X68000Y-38169
X68000Y-39169
X68000Y-40169
X68000Y-41169
X68000Y-42169
X68000Y-43169
X68000Y-44169
X68000Y-45169
X68000Y-46169
X68000Y-47169
X68000Y-48169
X68000Y-49169
X68000Y-50169
X68000Y-51169
X42500Y-21977
X42500Y-22977
X42500Y-23977
X60000Y-22000
X60000Y-23000
X60000Y-24000
X57500Y-42000
X57500Y-43000
X58500Y-42000
X58500Y-43000
X59500Y-42000
X59500Y-43000
X60500Y-42000
X60500Y-43000
X61500Y-42000
X61500Y-43000
X57500Y-55500
X57500Y-56500
X57500Y-57500
X63000Y-22000
X63000Y-23000
X63000Y-24000
X32000Y-55000
X33000Y-55000
X34000Y-55000
X56000Y-55500
X56000Y-56500
X56000Y-57500
X68000Y-53500
X68000Y-54500
X44000Y-21977
X44000Y-22977
X44000Y-23977
X32000Y-53500
X33000Y-53500
X34000Y-53500
X66750Y-53500
X66750Y-54500
X50801Y-21971
X50801Y-22971
X50801Y-23971
X32000Y-33500
X33000Y-33500
X36500Y-21977
X36500Y-22977
X36500Y-23977
X32000Y-50500
X33000Y-50500
X34000Y-50500
X32000Y-44500
X33000Y-44500
X34000Y-44500
X58500Y-22000
X58500Y-23000
X58500Y-24000
X53801Y-21971
X53801Y-22971
X53801Y-23971
X45500Y-55500
X45500Y-56500
X45500Y-57500
X52301Y-21971
X52301Y-22971
X52301Y-23971
X48500Y-55500
X48500Y-56500
X48500Y-57500
X32000Y-49000
X33000Y-49000
X34000Y-49000
X38000Y-21977
X38000Y-22977
X38000Y-23977
X32000Y-47500
X33000Y-47500
X34000Y-47500
X61500Y-22000
X61500Y-23000
X61500Y-24000
X54500Y-55500
X54500Y-56500
X54500Y-57500
X51500Y-55500
X51500Y-56500
X51500Y-57500
X39500Y-21977
X39500Y-22977
X39500Y-23977
T7
X63228Y-55000
X63228Y-57559
X65000Y-55000
X65000Y-57559
X60228Y-55000
X60228Y-57559
X62000Y-55000
X62000Y-57559
X66016Y-25266
X66016Y-27234
X67984Y-25266
X67984Y-27234
T3
G00X31326Y-35663
M15
G01X31798Y-35663
M16
G05
G00X31326Y-38537
M15
G01X31798Y-38537
M16
G05
T0
M30
