G04 #@! TF.GenerationSoftware,KiCad,Pcbnew,5.1.4-e60b266~84~ubuntu18.04.1*
G04 #@! TF.CreationDate,2019-11-04T13:45:43-06:00*
G04 #@! TF.ProjectId,2056-LPC546xxJyyyBD208-breakout,32303536-2d4c-4504-9335-343678784a79,rev?*
G04 #@! TF.SameCoordinates,Original*
G04 #@! TF.FileFunction,Legend,Bot*
G04 #@! TF.FilePolarity,Positive*
%FSLAX46Y46*%
G04 Gerber Fmt 4.6, Leading zero omitted, Abs format (unit mm)*
G04 Created by KiCad (PCBNEW 5.1.4-e60b266~84~ubuntu18.04.1) date 2019-11-04 13:45:43*
%MOMM*%
%LPD*%
G04 APERTURE LIST*
%ADD10C,0.250000*%
G04 APERTURE END LIST*
D10*
X166360142Y-81617023D02*
X166407761Y-81569404D01*
X166455380Y-81426547D01*
X166455380Y-81331309D01*
X166407761Y-81188452D01*
X166312523Y-81093214D01*
X166217285Y-81045595D01*
X166026809Y-80997976D01*
X165883952Y-80997976D01*
X165693476Y-81045595D01*
X165598238Y-81093214D01*
X165503000Y-81188452D01*
X165455380Y-81331309D01*
X165455380Y-81426547D01*
X165503000Y-81569404D01*
X165550619Y-81617023D01*
X166455380Y-82188452D02*
X166407761Y-82093214D01*
X166360142Y-82045595D01*
X166264904Y-81997976D01*
X165979190Y-81997976D01*
X165883952Y-82045595D01*
X165836333Y-82093214D01*
X165788714Y-82188452D01*
X165788714Y-82331309D01*
X165836333Y-82426547D01*
X165883952Y-82474166D01*
X165979190Y-82521785D01*
X166264904Y-82521785D01*
X166360142Y-82474166D01*
X166407761Y-82426547D01*
X166455380Y-82331309D01*
X166455380Y-82188452D01*
X165788714Y-82950357D02*
X166788714Y-82950357D01*
X165836333Y-82950357D02*
X165788714Y-83045595D01*
X165788714Y-83236071D01*
X165836333Y-83331309D01*
X165883952Y-83378928D01*
X165979190Y-83426547D01*
X166264904Y-83426547D01*
X166360142Y-83378928D01*
X166407761Y-83331309D01*
X166455380Y-83236071D01*
X166455380Y-83045595D01*
X166407761Y-82950357D01*
X165788714Y-83759880D02*
X166455380Y-83997976D01*
X165788714Y-84236071D02*
X166455380Y-83997976D01*
X166693476Y-83902738D01*
X166741095Y-83855119D01*
X166788714Y-83759880D01*
X166455380Y-84617023D02*
X165788714Y-84617023D01*
X165979190Y-84617023D02*
X165883952Y-84664642D01*
X165836333Y-84712261D01*
X165788714Y-84807500D01*
X165788714Y-84902738D01*
X166455380Y-85236071D02*
X165788714Y-85236071D01*
X165455380Y-85236071D02*
X165503000Y-85188452D01*
X165550619Y-85236071D01*
X165503000Y-85283690D01*
X165455380Y-85236071D01*
X165550619Y-85236071D01*
X165788714Y-86140833D02*
X166598238Y-86140833D01*
X166693476Y-86093214D01*
X166741095Y-86045595D01*
X166788714Y-85950357D01*
X166788714Y-85807500D01*
X166741095Y-85712261D01*
X166407761Y-86140833D02*
X166455380Y-86045595D01*
X166455380Y-85855119D01*
X166407761Y-85759880D01*
X166360142Y-85712261D01*
X166264904Y-85664642D01*
X165979190Y-85664642D01*
X165883952Y-85712261D01*
X165836333Y-85759880D01*
X165788714Y-85855119D01*
X165788714Y-86045595D01*
X165836333Y-86140833D01*
X166455380Y-86617023D02*
X165455380Y-86617023D01*
X166455380Y-87045595D02*
X165931571Y-87045595D01*
X165836333Y-86997976D01*
X165788714Y-86902738D01*
X165788714Y-86759880D01*
X165836333Y-86664642D01*
X165883952Y-86617023D01*
X165788714Y-87378928D02*
X165788714Y-87759880D01*
X165455380Y-87521785D02*
X166312523Y-87521785D01*
X166407761Y-87569404D01*
X166455380Y-87664642D01*
X166455380Y-87759880D01*
X165693476Y-89664642D02*
X165645857Y-89569404D01*
X165645857Y-89378928D01*
X165693476Y-89283690D01*
X165788714Y-89188452D01*
X165883952Y-89140833D01*
X166074428Y-89140833D01*
X166169666Y-89188452D01*
X166264904Y-89283690D01*
X166312523Y-89378928D01*
X166312523Y-89569404D01*
X166264904Y-89664642D01*
X165312523Y-89474166D02*
X165360142Y-89236071D01*
X165503000Y-88997976D01*
X165741095Y-88855119D01*
X165979190Y-88807500D01*
X166217285Y-88855119D01*
X166455380Y-88997976D01*
X166598238Y-89236071D01*
X166645857Y-89474166D01*
X166598238Y-89712261D01*
X166455380Y-89950357D01*
X166217285Y-90093214D01*
X165979190Y-90140833D01*
X165741095Y-90093214D01*
X165503000Y-89950357D01*
X165360142Y-89712261D01*
X165312523Y-89474166D01*
X165550619Y-91283690D02*
X165503000Y-91331309D01*
X165455380Y-91426547D01*
X165455380Y-91664642D01*
X165503000Y-91759880D01*
X165550619Y-91807500D01*
X165645857Y-91855119D01*
X165741095Y-91855119D01*
X165883952Y-91807500D01*
X166455380Y-91236071D01*
X166455380Y-91855119D01*
X165455380Y-92474166D02*
X165455380Y-92569404D01*
X165503000Y-92664642D01*
X165550619Y-92712261D01*
X165645857Y-92759880D01*
X165836333Y-92807500D01*
X166074428Y-92807500D01*
X166264904Y-92759880D01*
X166360142Y-92712261D01*
X166407761Y-92664642D01*
X166455380Y-92569404D01*
X166455380Y-92474166D01*
X166407761Y-92378928D01*
X166360142Y-92331309D01*
X166264904Y-92283690D01*
X166074428Y-92236071D01*
X165836333Y-92236071D01*
X165645857Y-92283690D01*
X165550619Y-92331309D01*
X165503000Y-92378928D01*
X165455380Y-92474166D01*
X166455380Y-93759880D02*
X166455380Y-93188452D01*
X166455380Y-93474166D02*
X165455380Y-93474166D01*
X165598238Y-93378928D01*
X165693476Y-93283690D01*
X165741095Y-93188452D01*
X166455380Y-94236071D02*
X166455380Y-94426547D01*
X166407761Y-94521785D01*
X166360142Y-94569404D01*
X166217285Y-94664642D01*
X166026809Y-94712261D01*
X165645857Y-94712261D01*
X165550619Y-94664642D01*
X165503000Y-94617023D01*
X165455380Y-94521785D01*
X165455380Y-94331309D01*
X165503000Y-94236071D01*
X165550619Y-94188452D01*
X165645857Y-94140833D01*
X165883952Y-94140833D01*
X165979190Y-94188452D01*
X166026809Y-94236071D01*
X166074428Y-94331309D01*
X166074428Y-94521785D01*
X166026809Y-94617023D01*
X165979190Y-94664642D01*
X165883952Y-94712261D01*
X165455380Y-96188452D02*
X166169666Y-96188452D01*
X166312523Y-96140833D01*
X166407761Y-96045595D01*
X166455380Y-95902738D01*
X166455380Y-95807500D01*
X166455380Y-96807500D02*
X166407761Y-96712261D01*
X166360142Y-96664642D01*
X166264904Y-96617023D01*
X165979190Y-96617023D01*
X165883952Y-96664642D01*
X165836333Y-96712261D01*
X165788714Y-96807500D01*
X165788714Y-96950357D01*
X165836333Y-97045595D01*
X165883952Y-97093214D01*
X165979190Y-97140833D01*
X166264904Y-97140833D01*
X166360142Y-97093214D01*
X166407761Y-97045595D01*
X166455380Y-96950357D01*
X166455380Y-96807500D01*
X166455380Y-97569404D02*
X165455380Y-97569404D01*
X166455380Y-97997976D02*
X165931571Y-97997976D01*
X165836333Y-97950357D01*
X165788714Y-97855119D01*
X165788714Y-97712261D01*
X165836333Y-97617023D01*
X165883952Y-97569404D01*
X165788714Y-98474166D02*
X166455380Y-98474166D01*
X165883952Y-98474166D02*
X165836333Y-98521785D01*
X165788714Y-98617023D01*
X165788714Y-98759880D01*
X165836333Y-98855119D01*
X165931571Y-98902738D01*
X166455380Y-98902738D01*
X165455380Y-100045595D02*
X166455380Y-100283690D01*
X165741095Y-100474166D01*
X166455380Y-100664642D01*
X165455380Y-100902738D01*
X166455380Y-101283690D02*
X165788714Y-101283690D01*
X165455380Y-101283690D02*
X165503000Y-101236071D01*
X165550619Y-101283690D01*
X165503000Y-101331309D01*
X165455380Y-101283690D01*
X165550619Y-101283690D01*
X165788714Y-101759880D02*
X166455380Y-101759880D01*
X165883952Y-101759880D02*
X165836333Y-101807500D01*
X165788714Y-101902738D01*
X165788714Y-102045595D01*
X165836333Y-102140833D01*
X165931571Y-102188452D01*
X166455380Y-102188452D01*
X166455380Y-103093214D02*
X165931571Y-103093214D01*
X165836333Y-103045595D01*
X165788714Y-102950357D01*
X165788714Y-102759880D01*
X165836333Y-102664642D01*
X166407761Y-103093214D02*
X166455380Y-102997976D01*
X166455380Y-102759880D01*
X166407761Y-102664642D01*
X166312523Y-102617023D01*
X166217285Y-102617023D01*
X166122047Y-102664642D01*
X166074428Y-102759880D01*
X166074428Y-102997976D01*
X166026809Y-103093214D01*
X165788714Y-103569404D02*
X166455380Y-103569404D01*
X165883952Y-103569404D02*
X165836333Y-103617023D01*
X165788714Y-103712261D01*
X165788714Y-103855119D01*
X165836333Y-103950357D01*
X165931571Y-103997976D01*
X166455380Y-103997976D01*
X166407761Y-104426547D02*
X166455380Y-104521785D01*
X166455380Y-104712261D01*
X166407761Y-104807500D01*
X166312523Y-104855119D01*
X166264904Y-104855119D01*
X166169666Y-104807500D01*
X166122047Y-104712261D01*
X166122047Y-104569404D01*
X166074428Y-104474166D01*
X165979190Y-104426547D01*
X165931571Y-104426547D01*
X165836333Y-104474166D01*
X165788714Y-104569404D01*
X165788714Y-104712261D01*
X165836333Y-104807500D01*
X168205380Y-81045595D02*
X167205380Y-81045595D01*
X168205380Y-81474166D02*
X167681571Y-81474166D01*
X167586333Y-81426547D01*
X167538714Y-81331309D01*
X167538714Y-81188452D01*
X167586333Y-81093214D01*
X167633952Y-81045595D01*
X167538714Y-81807500D02*
X167538714Y-82188452D01*
X167205380Y-81950357D02*
X168062523Y-81950357D01*
X168157761Y-81997976D01*
X168205380Y-82093214D01*
X168205380Y-82188452D01*
X167538714Y-82378928D02*
X167538714Y-82759880D01*
X167205380Y-82521785D02*
X168062523Y-82521785D01*
X168157761Y-82569404D01*
X168205380Y-82664642D01*
X168205380Y-82759880D01*
X167538714Y-83093214D02*
X168538714Y-83093214D01*
X167586333Y-83093214D02*
X167538714Y-83188452D01*
X167538714Y-83378928D01*
X167586333Y-83474166D01*
X167633952Y-83521785D01*
X167729190Y-83569404D01*
X168014904Y-83569404D01*
X168110142Y-83521785D01*
X168157761Y-83474166D01*
X168205380Y-83378928D01*
X168205380Y-83188452D01*
X168157761Y-83093214D01*
X168157761Y-83950357D02*
X168205380Y-84045595D01*
X168205380Y-84236071D01*
X168157761Y-84331309D01*
X168062523Y-84378928D01*
X168014904Y-84378928D01*
X167919666Y-84331309D01*
X167872047Y-84236071D01*
X167872047Y-84093214D01*
X167824428Y-83997976D01*
X167729190Y-83950357D01*
X167681571Y-83950357D01*
X167586333Y-83997976D01*
X167538714Y-84093214D01*
X167538714Y-84236071D01*
X167586333Y-84331309D01*
X168110142Y-84807500D02*
X168157761Y-84855119D01*
X168205380Y-84807500D01*
X168157761Y-84759880D01*
X168110142Y-84807500D01*
X168205380Y-84807500D01*
X167586333Y-84807500D02*
X167633952Y-84855119D01*
X167681571Y-84807500D01*
X167633952Y-84759880D01*
X167586333Y-84807500D01*
X167681571Y-84807500D01*
X167157761Y-85997976D02*
X168443476Y-85140833D01*
X167157761Y-87045595D02*
X168443476Y-86188452D01*
X167538714Y-87807500D02*
X168348238Y-87807500D01*
X168443476Y-87759880D01*
X168491095Y-87712261D01*
X168538714Y-87617023D01*
X168538714Y-87474166D01*
X168491095Y-87378928D01*
X168157761Y-87807500D02*
X168205380Y-87712261D01*
X168205380Y-87521785D01*
X168157761Y-87426547D01*
X168110142Y-87378928D01*
X168014904Y-87331309D01*
X167729190Y-87331309D01*
X167633952Y-87378928D01*
X167586333Y-87426547D01*
X167538714Y-87521785D01*
X167538714Y-87712261D01*
X167586333Y-87807500D01*
X168205380Y-88283690D02*
X167538714Y-88283690D01*
X167205380Y-88283690D02*
X167253000Y-88236071D01*
X167300619Y-88283690D01*
X167253000Y-88331309D01*
X167205380Y-88283690D01*
X167300619Y-88283690D01*
X167538714Y-88617023D02*
X167538714Y-88997976D01*
X167205380Y-88759880D02*
X168062523Y-88759880D01*
X168157761Y-88807500D01*
X168205380Y-88902738D01*
X168205380Y-88997976D01*
X168205380Y-89331309D02*
X167205380Y-89331309D01*
X168205380Y-89759880D02*
X167681571Y-89759880D01*
X167586333Y-89712261D01*
X167538714Y-89617023D01*
X167538714Y-89474166D01*
X167586333Y-89378928D01*
X167633952Y-89331309D01*
X167538714Y-90664642D02*
X168205380Y-90664642D01*
X167538714Y-90236071D02*
X168062523Y-90236071D01*
X168157761Y-90283690D01*
X168205380Y-90378928D01*
X168205380Y-90521785D01*
X168157761Y-90617023D01*
X168110142Y-90664642D01*
X168205380Y-91140833D02*
X167205380Y-91140833D01*
X167586333Y-91140833D02*
X167538714Y-91236071D01*
X167538714Y-91426547D01*
X167586333Y-91521785D01*
X167633952Y-91569404D01*
X167729190Y-91617023D01*
X168014904Y-91617023D01*
X168110142Y-91569404D01*
X168157761Y-91521785D01*
X168205380Y-91426547D01*
X168205380Y-91236071D01*
X168157761Y-91140833D01*
X168110142Y-92045595D02*
X168157761Y-92093214D01*
X168205380Y-92045595D01*
X168157761Y-91997976D01*
X168110142Y-92045595D01*
X168205380Y-92045595D01*
X168157761Y-92950357D02*
X168205380Y-92855119D01*
X168205380Y-92664642D01*
X168157761Y-92569404D01*
X168110142Y-92521785D01*
X168014904Y-92474166D01*
X167729190Y-92474166D01*
X167633952Y-92521785D01*
X167586333Y-92569404D01*
X167538714Y-92664642D01*
X167538714Y-92855119D01*
X167586333Y-92950357D01*
X168205380Y-93521785D02*
X168157761Y-93426547D01*
X168110142Y-93378928D01*
X168014904Y-93331309D01*
X167729190Y-93331309D01*
X167633952Y-93378928D01*
X167586333Y-93426547D01*
X167538714Y-93521785D01*
X167538714Y-93664642D01*
X167586333Y-93759880D01*
X167633952Y-93807500D01*
X167729190Y-93855119D01*
X168014904Y-93855119D01*
X168110142Y-93807500D01*
X168157761Y-93759880D01*
X168205380Y-93664642D01*
X168205380Y-93521785D01*
X168205380Y-94283690D02*
X167538714Y-94283690D01*
X167633952Y-94283690D02*
X167586333Y-94331309D01*
X167538714Y-94426547D01*
X167538714Y-94569404D01*
X167586333Y-94664642D01*
X167681571Y-94712261D01*
X168205380Y-94712261D01*
X167681571Y-94712261D02*
X167586333Y-94759880D01*
X167538714Y-94855119D01*
X167538714Y-94997976D01*
X167586333Y-95093214D01*
X167681571Y-95140833D01*
X168205380Y-95140833D01*
X167157761Y-96331309D02*
X168443476Y-95474166D01*
X167538714Y-96664642D02*
X168395857Y-96664642D01*
X168491095Y-96617023D01*
X168538714Y-96521785D01*
X168538714Y-96474166D01*
X167205380Y-96664642D02*
X167253000Y-96617023D01*
X167300619Y-96664642D01*
X167253000Y-96712261D01*
X167205380Y-96664642D01*
X167300619Y-96664642D01*
X168205380Y-97283690D02*
X168157761Y-97188452D01*
X168110142Y-97140833D01*
X168014904Y-97093214D01*
X167729190Y-97093214D01*
X167633952Y-97140833D01*
X167586333Y-97188452D01*
X167538714Y-97283690D01*
X167538714Y-97426547D01*
X167586333Y-97521785D01*
X167633952Y-97569404D01*
X167729190Y-97617023D01*
X168014904Y-97617023D01*
X168110142Y-97569404D01*
X168157761Y-97521785D01*
X168205380Y-97426547D01*
X168205380Y-97283690D01*
X168205380Y-98045595D02*
X167205380Y-98045595D01*
X168205380Y-98474166D02*
X167681571Y-98474166D01*
X167586333Y-98426547D01*
X167538714Y-98331309D01*
X167538714Y-98188452D01*
X167586333Y-98093214D01*
X167633952Y-98045595D01*
X167538714Y-98950357D02*
X168205380Y-98950357D01*
X167633952Y-98950357D02*
X167586333Y-98997976D01*
X167538714Y-99093214D01*
X167538714Y-99236071D01*
X167586333Y-99331309D01*
X167681571Y-99378928D01*
X168205380Y-99378928D01*
X167538714Y-99759880D02*
X168205380Y-99950357D01*
X167729190Y-100140833D01*
X168205380Y-100331309D01*
X167538714Y-100521785D01*
X168205380Y-100902738D02*
X167538714Y-100902738D01*
X167205380Y-100902738D02*
X167253000Y-100855119D01*
X167300619Y-100902738D01*
X167253000Y-100950357D01*
X167205380Y-100902738D01*
X167300619Y-100902738D01*
X167538714Y-101378928D02*
X168205380Y-101378928D01*
X167633952Y-101378928D02*
X167586333Y-101426547D01*
X167538714Y-101521785D01*
X167538714Y-101664642D01*
X167586333Y-101759880D01*
X167681571Y-101807500D01*
X168205380Y-101807500D01*
X168205380Y-102712261D02*
X167681571Y-102712261D01*
X167586333Y-102664642D01*
X167538714Y-102569404D01*
X167538714Y-102378928D01*
X167586333Y-102283690D01*
X168157761Y-102712261D02*
X168205380Y-102617023D01*
X168205380Y-102378928D01*
X168157761Y-102283690D01*
X168062523Y-102236071D01*
X167967285Y-102236071D01*
X167872047Y-102283690D01*
X167824428Y-102378928D01*
X167824428Y-102617023D01*
X167776809Y-102712261D01*
X167538714Y-103188452D02*
X168205380Y-103188452D01*
X167633952Y-103188452D02*
X167586333Y-103236071D01*
X167538714Y-103331309D01*
X167538714Y-103474166D01*
X167586333Y-103569404D01*
X167681571Y-103617023D01*
X168205380Y-103617023D01*
X168157761Y-104045595D02*
X168205380Y-104140833D01*
X168205380Y-104331309D01*
X168157761Y-104426547D01*
X168062523Y-104474166D01*
X168014904Y-104474166D01*
X167919666Y-104426547D01*
X167872047Y-104331309D01*
X167872047Y-104188452D01*
X167824428Y-104093214D01*
X167729190Y-104045595D01*
X167681571Y-104045595D01*
X167586333Y-104093214D01*
X167538714Y-104188452D01*
X167538714Y-104331309D01*
X167586333Y-104426547D01*
X167157761Y-105617023D02*
X168443476Y-104759880D01*
X167300619Y-105902738D02*
X167253000Y-105950357D01*
X167205380Y-106045595D01*
X167205380Y-106283690D01*
X167253000Y-106378928D01*
X167300619Y-106426547D01*
X167395857Y-106474166D01*
X167491095Y-106474166D01*
X167633952Y-106426547D01*
X168205380Y-105855119D01*
X168205380Y-106474166D01*
X167205380Y-107093214D02*
X167205380Y-107188452D01*
X167253000Y-107283690D01*
X167300619Y-107331309D01*
X167395857Y-107378928D01*
X167586333Y-107426547D01*
X167824428Y-107426547D01*
X168014904Y-107378928D01*
X168110142Y-107331309D01*
X168157761Y-107283690D01*
X168205380Y-107188452D01*
X168205380Y-107093214D01*
X168157761Y-106997976D01*
X168110142Y-106950357D01*
X168014904Y-106902738D01*
X167824428Y-106855119D01*
X167586333Y-106855119D01*
X167395857Y-106902738D01*
X167300619Y-106950357D01*
X167253000Y-106997976D01*
X167205380Y-107093214D01*
X167205380Y-108331309D02*
X167205380Y-107855119D01*
X167681571Y-107807500D01*
X167633952Y-107855119D01*
X167586333Y-107950357D01*
X167586333Y-108188452D01*
X167633952Y-108283690D01*
X167681571Y-108331309D01*
X167776809Y-108378928D01*
X168014904Y-108378928D01*
X168110142Y-108331309D01*
X168157761Y-108283690D01*
X168205380Y-108188452D01*
X168205380Y-107950357D01*
X168157761Y-107855119D01*
X168110142Y-107807500D01*
X167205380Y-109236071D02*
X167205380Y-109045595D01*
X167253000Y-108950357D01*
X167300619Y-108902738D01*
X167443476Y-108807500D01*
X167633952Y-108759880D01*
X168014904Y-108759880D01*
X168110142Y-108807500D01*
X168157761Y-108855119D01*
X168205380Y-108950357D01*
X168205380Y-109140833D01*
X168157761Y-109236071D01*
X168110142Y-109283690D01*
X168014904Y-109331309D01*
X167776809Y-109331309D01*
X167681571Y-109283690D01*
X167633952Y-109236071D01*
X167586333Y-109140833D01*
X167586333Y-108950357D01*
X167633952Y-108855119D01*
X167681571Y-108807500D01*
X167776809Y-108759880D01*
X167824428Y-109759880D02*
X167824428Y-110521785D01*
X168205380Y-111474166D02*
X168205380Y-110997976D01*
X167205380Y-110997976D01*
X168205380Y-111807500D02*
X167205380Y-111807500D01*
X167205380Y-112188452D01*
X167253000Y-112283690D01*
X167300619Y-112331309D01*
X167395857Y-112378928D01*
X167538714Y-112378928D01*
X167633952Y-112331309D01*
X167681571Y-112283690D01*
X167729190Y-112188452D01*
X167729190Y-111807500D01*
X168110142Y-113378928D02*
X168157761Y-113331309D01*
X168205380Y-113188452D01*
X168205380Y-113093214D01*
X168157761Y-112950357D01*
X168062523Y-112855119D01*
X167967285Y-112807500D01*
X167776809Y-112759880D01*
X167633952Y-112759880D01*
X167443476Y-112807500D01*
X167348238Y-112855119D01*
X167253000Y-112950357D01*
X167205380Y-113093214D01*
X167205380Y-113188452D01*
X167253000Y-113331309D01*
X167300619Y-113378928D01*
X167205380Y-114283690D02*
X167205380Y-113807500D01*
X167681571Y-113759880D01*
X167633952Y-113807500D01*
X167586333Y-113902738D01*
X167586333Y-114140833D01*
X167633952Y-114236071D01*
X167681571Y-114283690D01*
X167776809Y-114331309D01*
X168014904Y-114331309D01*
X168110142Y-114283690D01*
X168157761Y-114236071D01*
X168205380Y-114140833D01*
X168205380Y-113902738D01*
X168157761Y-113807500D01*
X168110142Y-113759880D01*
X167538714Y-115188452D02*
X168205380Y-115188452D01*
X167157761Y-114950357D02*
X167872047Y-114712261D01*
X167872047Y-115331309D01*
X167205380Y-116140833D02*
X167205380Y-115950357D01*
X167253000Y-115855119D01*
X167300619Y-115807499D01*
X167443476Y-115712261D01*
X167633952Y-115664642D01*
X168014904Y-115664642D01*
X168110142Y-115712261D01*
X168157761Y-115759880D01*
X168205380Y-115855119D01*
X168205380Y-116045595D01*
X168157761Y-116140833D01*
X168110142Y-116188452D01*
X168014904Y-116236071D01*
X167776809Y-116236071D01*
X167681571Y-116188452D01*
X167633952Y-116140833D01*
X167586333Y-116045595D01*
X167586333Y-115855119D01*
X167633952Y-115759880D01*
X167681571Y-115712261D01*
X167776809Y-115664642D01*
X168205380Y-116569404D02*
X167538714Y-117093214D01*
X167538714Y-116569404D02*
X168205380Y-117093214D01*
X168205380Y-117378928D02*
X167538714Y-117902738D01*
X167538714Y-117378928D02*
X168205380Y-117902738D01*
X167205380Y-118569404D02*
X167919666Y-118569404D01*
X168062523Y-118521785D01*
X168157761Y-118426547D01*
X168205380Y-118283690D01*
X168205380Y-118188452D01*
X167538714Y-118950357D02*
X168205380Y-119188452D01*
X167538714Y-119426547D02*
X168205380Y-119188452D01*
X168443476Y-119093214D01*
X168491095Y-119045595D01*
X168538714Y-118950357D01*
X167538714Y-119712261D02*
X168205380Y-119950357D01*
X167538714Y-120188452D02*
X168205380Y-119950357D01*
X168443476Y-119855119D01*
X168491095Y-119807499D01*
X168538714Y-119712261D01*
X167538714Y-120474166D02*
X168205380Y-120712261D01*
X167538714Y-120950357D02*
X168205380Y-120712261D01*
X168443476Y-120617023D01*
X168491095Y-120569404D01*
X168538714Y-120474166D01*
X167681571Y-121664642D02*
X167729190Y-121807499D01*
X167776809Y-121855119D01*
X167872047Y-121902738D01*
X168014904Y-121902738D01*
X168110142Y-121855119D01*
X168157761Y-121807499D01*
X168205380Y-121712261D01*
X168205380Y-121331309D01*
X167205380Y-121331309D01*
X167205380Y-121664642D01*
X167253000Y-121759880D01*
X167300619Y-121807499D01*
X167395857Y-121855119D01*
X167491095Y-121855119D01*
X167586333Y-121807499D01*
X167633952Y-121759880D01*
X167681571Y-121664642D01*
X167681571Y-121331309D01*
X168205380Y-122331309D02*
X167205380Y-122331309D01*
X167205380Y-122569404D01*
X167253000Y-122712261D01*
X167348238Y-122807499D01*
X167443476Y-122855119D01*
X167633952Y-122902738D01*
X167776809Y-122902738D01*
X167967285Y-122855119D01*
X168062523Y-122807499D01*
X168157761Y-122712261D01*
X168205380Y-122569404D01*
X168205380Y-122331309D01*
X167300619Y-123283690D02*
X167253000Y-123331309D01*
X167205380Y-123426547D01*
X167205380Y-123664642D01*
X167253000Y-123759880D01*
X167300619Y-123807499D01*
X167395857Y-123855119D01*
X167491095Y-123855119D01*
X167633952Y-123807499D01*
X168205380Y-123236071D01*
X168205380Y-123855119D01*
X167205380Y-124474166D02*
X167205380Y-124569404D01*
X167253000Y-124664642D01*
X167300619Y-124712261D01*
X167395857Y-124759880D01*
X167586333Y-124807499D01*
X167824428Y-124807499D01*
X168014904Y-124759880D01*
X168110142Y-124712261D01*
X168157761Y-124664642D01*
X168205380Y-124569404D01*
X168205380Y-124474166D01*
X168157761Y-124378928D01*
X168110142Y-124331309D01*
X168014904Y-124283690D01*
X167824428Y-124236071D01*
X167586333Y-124236071D01*
X167395857Y-124283690D01*
X167300619Y-124331309D01*
X167253000Y-124378928D01*
X167205380Y-124474166D01*
X167633952Y-125378928D02*
X167586333Y-125283690D01*
X167538714Y-125236071D01*
X167443476Y-125188452D01*
X167395857Y-125188452D01*
X167300619Y-125236071D01*
X167253000Y-125283690D01*
X167205380Y-125378928D01*
X167205380Y-125569404D01*
X167253000Y-125664642D01*
X167300619Y-125712261D01*
X167395857Y-125759880D01*
X167443476Y-125759880D01*
X167538714Y-125712261D01*
X167586333Y-125664642D01*
X167633952Y-125569404D01*
X167633952Y-125378928D01*
X167681571Y-125283690D01*
X167729190Y-125236071D01*
X167824428Y-125188452D01*
X168014904Y-125188452D01*
X168110142Y-125236071D01*
X168157761Y-125283690D01*
X168205380Y-125378928D01*
X168205380Y-125569404D01*
X168157761Y-125664642D01*
X168110142Y-125712261D01*
X168014904Y-125759880D01*
X167824428Y-125759880D01*
X167729190Y-125712261D01*
X167681571Y-125664642D01*
X167633952Y-125569404D01*
X167824428Y-126188452D02*
X167824428Y-126950357D01*
X168205380Y-127426547D02*
X167205380Y-127426547D01*
X167586333Y-127426547D02*
X167538714Y-127521785D01*
X167538714Y-127712261D01*
X167586333Y-127807499D01*
X167633952Y-127855119D01*
X167729190Y-127902738D01*
X168014904Y-127902738D01*
X168110142Y-127855119D01*
X168157761Y-127807499D01*
X168205380Y-127712261D01*
X168205380Y-127521785D01*
X168157761Y-127426547D01*
X168205380Y-128331309D02*
X167538714Y-128331309D01*
X167729190Y-128331309D02*
X167633952Y-128378928D01*
X167586333Y-128426547D01*
X167538714Y-128521785D01*
X167538714Y-128617023D01*
X168157761Y-129331309D02*
X168205380Y-129236071D01*
X168205380Y-129045595D01*
X168157761Y-128950357D01*
X168062523Y-128902738D01*
X167681571Y-128902738D01*
X167586333Y-128950357D01*
X167538714Y-129045595D01*
X167538714Y-129236071D01*
X167586333Y-129331309D01*
X167681571Y-129378928D01*
X167776809Y-129378928D01*
X167872047Y-128902738D01*
X168205380Y-130236071D02*
X167681571Y-130236071D01*
X167586333Y-130188452D01*
X167538714Y-130093214D01*
X167538714Y-129902738D01*
X167586333Y-129807499D01*
X168157761Y-130236071D02*
X168205380Y-130140833D01*
X168205380Y-129902738D01*
X168157761Y-129807499D01*
X168062523Y-129759880D01*
X167967285Y-129759880D01*
X167872047Y-129807499D01*
X167824428Y-129902738D01*
X167824428Y-130140833D01*
X167776809Y-130236071D01*
X168205380Y-130712261D02*
X167205380Y-130712261D01*
X167824428Y-130807499D02*
X168205380Y-131093214D01*
X167538714Y-131093214D02*
X167919666Y-130712261D01*
X168205380Y-131664642D02*
X168157761Y-131569404D01*
X168110142Y-131521785D01*
X168014904Y-131474166D01*
X167729190Y-131474166D01*
X167633952Y-131521785D01*
X167586333Y-131569404D01*
X167538714Y-131664642D01*
X167538714Y-131807499D01*
X167586333Y-131902738D01*
X167633952Y-131950357D01*
X167729190Y-131997976D01*
X168014904Y-131997976D01*
X168110142Y-131950357D01*
X168157761Y-131902738D01*
X168205380Y-131807499D01*
X168205380Y-131664642D01*
X167538714Y-132855119D02*
X168205380Y-132855119D01*
X167538714Y-132426547D02*
X168062523Y-132426547D01*
X168157761Y-132474166D01*
X168205380Y-132569404D01*
X168205380Y-132712261D01*
X168157761Y-132807499D01*
X168110142Y-132855119D01*
X167538714Y-133188452D02*
X167538714Y-133569404D01*
X167205380Y-133331309D02*
X168062523Y-133331309D01*
X168157761Y-133378928D01*
X168205380Y-133474166D01*
X168205380Y-133569404D01*
M02*
